<svg width="19" height="9" viewBox="0 0 19 9" fill="none" xmlns="http://www.w3.org/2000/svg">
<path d="M8.19141 6C7.90807 6 7.67074 5.904 7.47941 5.712C7.28741 5.52067 7.19141 5.28333 7.19141 5V1C7.19141 0.716667 7.28741 0.479 7.47941 0.287C7.67074 0.0956664 7.90807 0 8.19141 0H11.1914C11.4747 0 11.7124 0.0956664 11.9044 0.287C12.0957 0.479 12.1914 0.716667 12.1914 1V5C12.1914 5.28333 12.0957 5.52067 11.9044 5.712C11.7124 5.904 11.4747 6 11.1914 6H8.19141ZM8.69141 4.5H10.6914V1.5H8.69141V4.5ZM1.19141 6C0.908073 6 0.67074 5.904 0.479406 5.712C0.287406 5.52067 0.191406 5.28333 0.191406 5V1C0.191406 0.716667 0.287406 0.479 0.479406 0.287C0.67074 0.0956664 0.908073 0 1.19141 0H4.19141C4.47474 0 4.71241 0.0956664 4.90441 0.287C5.09574 0.479 5.19141 0.716667 5.19141 1V2H3.69141V1.5H1.69141V4.5H3.69141V4H5.19141V5C5.19141 5.28333 5.09574 5.52067 4.90441 5.712C4.71241 5.904 4.47474 6 4.19141 6H1.19141ZM14.1914 9V6.5C14.1914 6.21667 14.2874 5.979 14.4794 5.787C14.6707 5.59567 14.9081 5.5 15.1914 5.5H17.1914V4.5H14.1914V3H17.6914C17.9747 3 18.2121 3.09567 18.4034 3.287C18.5954 3.479 18.6914 3.71667 18.6914 4V5.5C18.6914 5.78333 18.5954 6.02067 18.4034 6.212C18.2121 6.404 17.9747 6.5 17.6914 6.5H15.6914V7.5H18.6914V9H14.1914Z" fill="#283882"/>
</svg>
