<svg width="23" height="19" viewBox="0 0 23 19" fill="none" xmlns="http://www.w3.org/2000/svg">
<path d="M2.19189 19C1.64189 19 1.17123 18.8043 0.779895 18.413C0.387895 18.021 0.191895 17.55 0.191895 17V4H2.19189V17H19.1919V19H2.19189ZM6.19189 15C5.64189 15 5.17123 14.8043 4.77989 14.413C4.38789 14.021 4.19189 13.55 4.19189 13V2C4.19189 1.45 4.38789 0.979 4.77989 0.587C5.17123 0.195667 5.64189 0 6.19189 0H11.1919L13.1919 2H20.1919C20.7419 2 21.2129 2.196 21.6049 2.588C21.9962 2.97933 22.1919 3.45 22.1919 4V13C22.1919 13.55 21.9962 14.021 21.6049 14.413C21.2129 14.8043 20.7419 15 20.1919 15H6.19189ZM6.19189 13H20.1919V4H12.3669L10.3669 2H6.19189V13Z" fill="#283882"/>
</svg>
