<svg width="21" height="20" viewBox="0 0 21 20" fill="none" xmlns="http://www.w3.org/2000/svg">
<path d="M10.1919 20C8.80856 20 7.50856 19.7373 6.29189 19.212C5.07523 18.6873 4.01689 17.975 3.11689 17.075C2.21689 16.175 1.50456 15.1167 0.979895 13.9C0.454561 12.6833 0.191895 11.3833 0.191895 10C0.191895 8.61667 0.454561 7.31667 0.979895 6.1C1.50456 4.88333 2.21689 3.825 3.11689 2.925C4.01689 2.025 5.07523 1.31233 6.29189 0.787C7.50856 0.262333 8.80856 0 10.1919 0C12.6252 0 14.7542 0.762334 16.5789 2.287C18.4042 3.81233 19.5419 5.725 19.9919 8.025H17.9419C17.6252 6.80833 17.0546 5.72067 16.2299 4.762C15.4046 3.804 14.3919 3.08333 13.1919 2.6V3C13.1919 3.55 12.9962 4.02067 12.6049 4.412C12.2129 4.804 11.7419 5 11.1919 5H9.19189V7C9.19189 7.28333 9.09623 7.52067 8.90489 7.712C8.71289 7.904 8.47523 8 8.19189 8H6.19189V10H8.19189V13H7.19189L2.39189 8.2C2.34189 8.5 2.29589 8.8 2.25389 9.1C2.21256 9.4 2.19189 9.7 2.19189 10C2.19189 12.1833 2.95856 14.0583 4.49189 15.625C6.02523 17.1917 7.92523 17.9833 10.1919 18V20ZM19.2919 19.5L16.0919 16.3C15.7419 16.5 15.3669 16.6667 14.9669 16.8C14.5669 16.9333 14.1419 17 13.6919 17C12.4419 17 11.3792 16.5627 10.5039 15.688C9.62923 14.8127 9.19189 13.75 9.19189 12.5C9.19189 11.25 9.62923 10.1873 10.5039 9.312C11.3792 8.43733 12.4419 8 13.6919 8C14.9419 8 16.0046 8.43733 16.8799 9.312C17.7546 10.1873 18.1919 11.25 18.1919 12.5C18.1919 12.95 18.1252 13.375 17.9919 13.775C17.8586 14.175 17.6919 14.55 17.4919 14.9L20.6919 18.1L19.2919 19.5ZM13.6919 15C14.3919 15 14.9836 14.7583 15.4669 14.275C15.9502 13.7917 16.1919 13.2 16.1919 12.5C16.1919 11.8 15.9502 11.2083 15.4669 10.725C14.9836 10.2417 14.3919 10 13.6919 10C12.9919 10 12.4002 10.2417 11.9169 10.725C11.4336 11.2083 11.1919 11.8 11.1919 12.5C11.1919 13.2 11.4336 13.7917 11.9169 14.275C12.4002 14.7583 12.9919 15 13.6919 15Z" fill="#283882"/>
</svg>
