<svg width="23" height="23" viewBox="0 0 23 23" fill="none" xmlns="http://www.w3.org/2000/svg">
<path d="M3.19141 16V9H5.19141V16H3.19141ZM9.19141 16V9H11.1914V16H9.19141ZM0.191406 7V5L10.1914 0L20.1914 5V7H0.191406ZM4.66641 5H15.7164L10.1914 2.25L4.66641 5ZM0.191406 20V18H12.2414C12.2747 18.35 12.3164 18.6873 12.3664 19.012C12.4164 19.3373 12.4914 19.6667 12.5914 20H0.191406ZM15.1914 12.25V9H17.1914V11.25L15.1914 12.25ZM18.1914 23C17.0414 22.7167 16.0874 22.054 15.3294 21.012C14.5707 19.9707 14.1914 18.8167 14.1914 17.55V15L18.1914 13L22.1914 15V17.55C22.1914 18.8167 21.8124 19.9707 21.0544 21.012C20.2957 22.054 19.3414 22.7167 18.1914 23ZM17.4664 20L20.9414 16.55L19.8914 15.5L17.4664 17.875L16.4914 16.9L15.4414 17.975L17.4664 20Z" fill="#283882"/>
</svg>
