<svg width="22" height="22" viewBox="0 0 22 22" fill="none" xmlns="http://www.w3.org/2000/svg">
<path d="M10.8785 21.8332C9.39264 21.8332 7.98832 21.5486 6.66554 20.9795C5.34276 20.4111 4.18778 19.6347 3.20059 18.6503C2.21267 17.6667 1.4335 16.5158 0.863073 15.1978C0.291923 13.8797 0.00634766 12.4804 0.00634766 10.9998C0.00634766 9.50123 0.291923 8.09759 0.863073 6.78892C1.4335 5.47953 2.21267 4.333 3.20059 3.34934C4.18778 2.36495 5.34276 1.5882 6.66554 1.01909C7.98832 0.450698 9.39264 0.166504 10.8785 0.166504C12.3825 0.166504 13.7911 0.450698 15.1045 1.01909C16.4186 1.5882 17.5692 2.36495 18.5564 3.34934C19.5443 4.333 20.3235 5.47953 20.8939 6.78892C21.4651 8.09759 21.7506 9.50123 21.7506 10.9998C21.7506 12.4804 21.4651 13.8797 20.8939 15.1978C20.3235 16.5158 19.5443 17.6667 18.5564 18.6503C17.5692 19.6347 16.4186 20.4111 15.1045 20.9795C13.7911 21.5486 12.3825 21.8332 10.8785 21.8332ZM10.8785 19.6123C11.3496 18.9623 11.7573 18.2853 12.1016 17.5811C12.4459 16.8769 12.7268 16.1276 12.9442 15.3332H8.81279C9.03023 16.1276 9.3111 16.8769 9.65538 17.5811C9.99967 18.2853 10.4074 18.9623 10.8785 19.6123ZM8.05174 19.179C7.72557 18.5832 7.44036 17.9646 7.1961 17.3233C6.95112 16.6826 6.74708 16.0193 6.584 15.3332H3.37671C3.9022 16.2359 4.55888 17.0214 5.34675 17.6894C6.13534 18.3575 7.037 18.854 8.05174 19.179ZM13.7053 19.179C14.72 18.854 15.6213 18.3575 16.4092 17.6894C17.1978 17.0214 17.8548 16.2359 18.3803 15.3332H15.173C15.0099 16.0193 14.8062 16.6826 14.562 17.3233C14.317 17.9646 14.0314 18.5832 13.7053 19.179ZM2.45258 13.1665H6.14911C6.09475 12.8054 6.0538 12.4486 6.02626 12.0962C5.99944 11.7444 5.98603 11.379 5.98603 10.9998C5.98603 10.6207 5.99944 10.2552 6.02626 9.9035C6.0538 9.55106 6.09475 9.19428 6.14911 8.83317H2.45258C2.36198 9.19428 2.29385 9.55106 2.24818 9.9035C2.20325 10.2552 2.18078 10.6207 2.18078 10.9998C2.18078 11.379 2.20325 11.7444 2.24818 12.0962C2.29385 12.4486 2.36198 12.8054 2.45258 13.1665ZM8.32354 13.1665H13.4335C13.4878 12.8054 13.5288 12.4486 13.5563 12.0962C13.5831 11.7444 13.5965 11.379 13.5965 10.9998C13.5965 10.6207 13.5831 10.2552 13.5563 9.9035C13.5288 9.55106 13.4878 9.19428 13.4335 8.83317H8.32354C8.26918 9.19428 8.22859 9.55106 8.20177 9.9035C8.17423 10.2552 8.16046 10.6207 8.16046 10.9998C8.16046 11.379 8.17423 11.7444 8.20177 12.0962C8.22859 12.4486 8.26918 12.8054 8.32354 13.1665ZM15.6079 13.1665H19.3044C19.395 12.8054 19.4631 12.4486 19.5088 12.0962C19.5537 11.7444 19.5762 11.379 19.5762 10.9998C19.5762 10.6207 19.5537 10.2552 19.5088 9.9035C19.4631 9.55106 19.395 9.19428 19.3044 8.83317H15.6079C15.6622 9.19428 15.7028 9.55106 15.7297 9.9035C15.7572 10.2552 15.771 10.6207 15.771 10.9998C15.771 11.379 15.7572 11.7444 15.7297 12.0962C15.7028 12.4486 15.6622 12.8054 15.6079 13.1665ZM15.173 6.6665H18.3803C17.8548 5.76373 17.1978 4.97831 16.4092 4.31025C15.6213 3.6422 14.72 3.14567 13.7053 2.82067C14.0314 3.4165 14.317 4.03473 14.562 4.67534C14.8062 5.31667 15.0099 5.98039 15.173 6.6665ZM8.81279 6.6665H12.9442C12.7268 5.87206 12.4459 5.12275 12.1016 4.41859C11.7573 3.71442 11.3496 3.03734 10.8785 2.38734C10.4074 3.03734 9.99967 3.71442 9.65538 4.41859C9.3111 5.12275 9.03023 5.87206 8.81279 6.6665ZM3.37671 6.6665H6.584C6.74708 5.98039 6.95112 5.31667 7.1961 4.67534C7.44036 4.03473 7.72557 3.4165 8.05174 2.82067C7.037 3.14567 6.13534 3.6422 5.34675 4.31025C4.55888 4.97831 3.9022 5.76373 3.37671 6.6665Z" fill="white"/>
</svg>
