<svg width="22" height="21" viewBox="0 0 22 21" fill="none" xmlns="http://www.w3.org/2000/svg">
<path d="M8.39141 7.2L10.6164 3.525L9.14141 1.075C8.94141 0.741667 8.65407 0.575 8.27941 0.575C7.90407 0.575 7.61641 0.741667 7.41641 1.075L4.96641 5.15L8.39141 7.2ZM18.0664 14L15.8414 10.3L19.3164 8.3L20.9164 10.975C21.0997 11.2583 21.1997 11.575 21.2164 11.925C21.2331 12.275 21.1581 12.6 20.9914 12.9C20.8247 13.2333 20.5787 13.5 20.2534 13.7C19.9287 13.9 19.5747 14 19.1914 14H18.0664ZM15.1914 21L11.1914 17L15.1914 13V15H19.9414L18.4914 17.9C18.3081 18.2333 18.0581 18.5 17.7414 18.7C17.4247 18.9 17.0747 19 16.6914 19H15.1914V21ZM5.51641 19C5.18307 19 4.87874 18.9127 4.60341 18.738C4.32874 18.5627 4.12474 18.3333 3.99141 18.05C3.85807 17.7833 3.79574 17.504 3.80441 17.212C3.81241 16.9207 3.89141 16.65 4.04141 16.4L4.89141 15H9.19141V19H5.51641ZM3.04141 16.15L1.41641 12.9C1.26641 12.6 1.19574 12.2793 1.20441 11.938C1.21241 11.596 1.30807 11.275 1.49141 10.975L1.89141 10.3L0.191406 9.275L5.66641 7.9L7.04141 13.4L5.31641 12.35L3.04141 16.15ZM16.5414 7.6L11.0664 6.225L12.7914 5.2L9.66641 0H13.1914C13.5414 0 13.8707 0.0873334 14.1794 0.262C14.4874 0.437333 14.7331 0.675 14.9164 0.975L16.2164 3.15L17.9164 2.1L16.5414 7.6Z" fill="#283882"/>
</svg>
