<svg width="19" height="18" viewBox="0 0 19 18" fill="none" xmlns="http://www.w3.org/2000/svg">
<path d="M9.19189 8C6.69189 8 4.56689 7.60833 2.81689 6.825C1.06689 6.04167 0.191895 5.1 0.191895 4C0.191895 2.9 1.06689 1.95833 2.81689 1.175C4.56689 0.391667 6.69189 0 9.19189 0C11.6919 0 13.8169 0.391667 15.5669 1.175C17.3169 1.95833 18.1919 2.9 18.1919 4C18.1919 5.1 17.3169 6.04167 15.5669 6.825C13.8169 7.60833 11.6919 8 9.19189 8ZM9.19189 13C6.69189 13 4.56689 12.6083 2.81689 11.825C1.06689 11.0417 0.191895 10.1 0.191895 9V6.5C0.191895 7.23333 0.533561 7.85433 1.21689 8.363C1.90023 8.871 2.71689 9.28333 3.66689 9.6C4.61689 9.91667 5.60456 10.1457 6.62989 10.287C7.65456 10.429 8.50856 10.5 9.19189 10.5C9.87523 10.5 10.7292 10.429 11.7539 10.287C12.7792 10.1457 13.7669 9.91667 14.7169 9.6C15.6669 9.28333 16.4836 8.871 17.1669 8.363C17.8502 7.85433 18.1919 7.23333 18.1919 6.5V9C18.1919 10.1 17.3169 11.0417 15.5669 11.825C13.8169 12.6083 11.6919 13 9.19189 13ZM9.19189 18C6.69189 18 4.56689 17.6083 2.81689 16.825C1.06689 16.0417 0.191895 15.1 0.191895 14V11.5C0.191895 12.2333 0.533561 12.8543 1.21689 13.363C1.90023 13.871 2.71689 14.2833 3.66689 14.6C4.61689 14.9167 5.60456 15.146 6.62989 15.288C7.65456 15.4293 8.50856 15.5 9.19189 15.5C9.87523 15.5 10.7292 15.4293 11.7539 15.288C12.7792 15.146 13.7669 14.9167 14.7169 14.6C15.6669 14.2833 16.4836 13.871 17.1669 13.363C17.8502 12.8543 18.1919 12.2333 18.1919 11.5V14C18.1919 15.1 17.3169 16.0417 15.5669 16.825C13.8169 17.6083 11.6919 18 9.19189 18Z" fill="#283882"/>
</svg>
