<svg width="21" height="19" viewBox="0 0 21 19" fill="none" xmlns="http://www.w3.org/2000/svg">
<path d="M2.69141 8C2.25807 8 1.89974 7.85833 1.61641 7.575C1.33307 7.29167 1.19141 6.93333 1.19141 6.5C1.19141 6.06667 1.33307 5.70833 1.61641 5.425C1.89974 5.14167 2.25807 5 2.69141 5C3.12474 5 3.48307 5.14167 3.76641 5.425C4.04974 5.70833 4.19141 6.06667 4.19141 6.5C4.19141 6.93333 4.04974 7.29167 3.76641 7.575C3.48307 7.85833 3.12474 8 2.69141 8ZM1.19141 19V14H0.191406V10C0.191406 9.71667 0.287406 9.479 0.479406 9.287C0.67074 9.09567 0.908073 9 1.19141 9H4.19141C4.47474 9 4.71241 9.09567 4.90441 9.287C5.09574 9.479 5.19141 9.71667 5.19141 10V14H4.19141V17H12.1914V12H10.4414C9.25807 12 8.25407 11.5873 7.42941 10.762C6.60407 9.93733 6.19141 8.93333 6.19141 7.75C6.19141 6.86667 6.42907 6.079 6.90441 5.387C7.37907 4.69567 7.99141 4.18333 8.74141 3.85C8.92474 2.76667 9.42874 1.854 10.2534 1.112C11.0787 0.370667 12.0581 0 13.1914 0C14.3247 0 15.3041 0.370667 16.1294 1.112C16.9541 1.854 17.4581 2.76667 17.6414 3.85C18.3914 4.18333 19.0041 4.69567 19.4794 5.387C19.9541 6.079 20.1914 6.86667 20.1914 7.75C20.1914 8.93333 19.7791 9.93733 18.9544 10.762C18.1291 11.5873 17.1247 12 15.9414 12H14.1914V17H19.1914V19H1.19141ZM10.4414 10H15.9414C16.5747 10 17.1081 9.78333 17.5414 9.35C17.9747 8.91667 18.1914 8.38333 18.1914 7.75C18.1914 7.3 18.0707 6.89167 17.8294 6.525C17.5874 6.15833 17.2581 5.88333 16.8414 5.7L15.7914 5.25L15.6414 4.15C15.5414 3.53333 15.2624 3.02067 14.8044 2.612C14.3457 2.204 13.8081 2 13.1914 2C12.5747 2 12.0374 2.204 11.5794 2.612C11.1207 3.02067 10.8414 3.53333 10.7414 4.15L10.5914 5.25L9.54141 5.7C9.12474 5.88333 8.79574 6.15833 8.55441 6.525C8.31241 6.89167 8.19141 7.3 8.19141 7.75C8.19141 8.38333 8.40807 8.91667 8.84141 9.35C9.27474 9.78333 9.80807 10 10.4414 10Z" fill="#283882"/>
</svg>
