<svg width="90" height="45" viewBox="0 0 90 45" fill="none" xmlns="http://www.w3.org/2000/svg">
<mask id="mask0_5655_11536" style="mask-type:luminance" maskUnits="userSpaceOnUse" x="0" y="0" width="90" height="45">
<path fill-rule="evenodd" clip-rule="evenodd" d="M0 45V0H90V45H0Z" fill="white"/>
</mask>
<g mask="url(#mask0_5655_11536)">
<path fill-rule="evenodd" clip-rule="evenodd" d="M45 45L90 0H0V45H45Z" fill="url(#paint0_linear_5655_11536)"/>
<path fill-rule="evenodd" clip-rule="evenodd" d="M53.9314 21.7825H51.9789V14.6437H53.9314C56.5339 14.6437 58.6101 15.5087 58.6101 18.1662C58.6101 20.9162 56.5339 21.7825 53.9314 21.7825ZM32.9351 26.8725C31.9014 26.8725 30.9326 26.6925 30.0976 26.3775L32.9051 17.5175H32.9576L35.7176 26.4012C34.8876 26.6962 33.9414 26.8725 32.9351 26.8725ZM53.4114 8.84872L44.5514 8.84372V29.9075L36.8126 8.84372H29.1389L22.5314 26.46C21.8276 22.0175 17.2326 20.4837 13.6176 19.3337C11.2314 18.5675 8.69762 17.44 8.72262 16.1937C8.74137 15.1712 10.0801 14.2212 12.7326 14.3637C14.5151 14.4587 16.0876 14.6025 19.2164 16.1112L22.2939 10.7525C19.4376 9.29872 15.4926 8.37997 12.2589 8.37622H12.2389C8.46887 8.37622 5.32637 9.59872 3.37887 11.6125C2.02137 13.0187 1.28887 14.8037 1.25887 16.78C1.20887 19.4975 2.20637 21.4262 4.30012 22.965C6.06887 24.2612 8.33137 25.1025 10.3251 25.72C12.7839 26.4825 14.7914 27.1437 14.7689 28.5575C14.7501 29.0712 14.5551 29.5512 14.1851 29.94C13.5726 30.5725 12.6301 30.81 11.3301 30.835C8.82137 30.8875 6.95887 30.495 3.99512 28.7425L1.25887 34.1775C4.21512 35.86 7.71637 36.8462 11.2876 36.8462L11.7476 36.8412C14.8564 36.785 17.3664 35.8987 19.3701 34.285C19.4851 34.1937 19.5889 34.0987 19.6951 34.005L18.8064 36.3787H26.8539L28.2051 32.27C29.6189 32.7537 31.2264 33.02 32.9351 33.02C34.5989 33.02 36.1651 32.7662 37.5526 32.3112L38.8539 36.3787H51.9789V27.8737H54.8401C61.7614 27.8737 65.8539 24.35 65.8539 18.445C65.8539 11.8675 61.8764 8.84872 53.4114 8.84872Z" fill="white"/>
</g>
<defs>
<linearGradient id="paint0_linear_5655_11536" x1="0" y1="0" x2="0" y2="45" gradientUnits="userSpaceOnUse">
<stop stop-color="#00B9F2"/>
<stop offset="1" stop-color="#0072BC"/>
</linearGradient>
</defs>
</svg>
